<?xml version="1.0" encoding="UTF-8"?>
<svg width="24px" height="24px" viewBox="0 0 24 24" version="1.1" xmlns="http://www.w3.org/2000/svg">
    <title>Apple Health</title>
    <g stroke="none" stroke-width="1" fill="none" fill-rule="evenodd">
        <circle fill="#FF2D55" cx="12" cy="12" r="12"/>
        <path d="M12,6 C13.1,6 14,6.9 14,8 L14,10 L16,10 C17.1,10 18,10.9 18,12 C18,13.1 17.1,14 16,14 L14,14 L14,16 C14,17.1 13.1,18 12,18 C10.9,18 10,17.1 10,16 L10,14 L8,14 C6.9,14 6,13.1 6,12 C6,10.9 6.9,10 8,10 L10,10 L10,8 C10,6.9 10.9,6 12,6 Z" fill="#FFFFFF"/>
    </g>
</svg>
